<svg width="185" height="48" viewBox="0 0 185 48" fill="none" xmlns="http://www.w3.org/2000/svg">
<path d="M36.4318 0.454544V47H32.2955L4.79545 8.02273H4.43182V47H0.181818V0.454544H4.29545L31.8864 39.4773H32.25V0.454544H36.4318ZM61.5341 47.7273C58.5189 47.7273 55.8523 46.9621 53.5341 45.4318C51.2311 43.9015 49.428 41.7879 48.125 39.0909C46.822 36.3788 46.1705 33.25 46.1705 29.7045C46.1705 26.1288 46.822 22.9848 48.125 20.2727C49.428 17.5455 51.2311 15.4242 53.5341 13.9091C55.8523 12.3788 58.5189 11.6136 61.5341 11.6136C64.5492 11.6136 67.2083 12.3788 69.5114 13.9091C71.8144 15.4394 73.6174 17.5606 74.9205 20.2727C76.2386 22.9848 76.8977 26.1288 76.8977 29.7045C76.8977 33.25 76.2462 36.3788 74.9432 39.0909C73.6402 41.7879 71.8295 43.9015 69.5114 45.4318C67.2083 46.9621 64.5492 47.7273 61.5341 47.7273ZM61.5341 44.0227C63.9583 44.0227 66.0114 43.3712 67.6932 42.0682C69.375 40.7652 70.6477 39.0303 71.5114 36.8636C72.3902 34.697 72.8295 32.3106 72.8295 29.7045C72.8295 27.0985 72.3902 24.7045 71.5114 22.5227C70.6477 20.3409 69.375 18.5909 67.6932 17.2727C66.0114 15.9545 63.9583 15.2955 61.5341 15.2955C59.125 15.2955 57.072 15.9545 55.375 17.2727C53.6932 18.5909 52.4129 20.3409 51.5341 22.5227C50.6705 24.7045 50.2386 27.0985 50.2386 29.7045C50.2386 32.3106 50.6705 34.697 51.5341 36.8636C52.4129 39.0303 53.6932 40.7652 55.375 42.0682C57.0568 43.3712 59.1098 44.0227 61.5341 44.0227ZM99.5284 12.0909V15.6136H82.8693V12.0909H99.5284ZM88.0739 3.72727H92.142V37.8864C92.142 39.3409 92.392 40.4848 92.892 41.3182C93.392 42.1364 94.0436 42.7197 94.8466 43.0682C95.6496 43.4015 96.5057 43.5682 97.4148 43.5682C97.9451 43.5682 98.3996 43.5379 98.7784 43.4773C99.1572 43.4015 99.4905 43.3258 99.7784 43.25L100.642 46.9091C100.248 47.0606 99.7633 47.197 99.1875 47.3182C98.6117 47.4545 97.8996 47.5227 97.0511 47.5227C95.5663 47.5227 94.1345 47.197 92.7557 46.5455C91.392 45.8939 90.2708 44.9242 89.392 43.6364C88.5133 42.3485 88.0739 40.75 88.0739 38.8409V3.72727ZM122.455 47.7273C119.197 47.7273 116.379 46.9697 114 45.4545C111.621 43.9242 109.78 41.8106 108.477 39.1136C107.189 36.4015 106.545 33.2803 106.545 29.75C106.545 26.2348 107.189 23.1136 108.477 20.3864C109.78 17.6439 111.576 15.5 113.864 13.9545C116.167 12.3939 118.826 11.6136 121.841 11.6136C123.735 11.6136 125.561 11.9621 127.318 12.6591C129.076 13.3409 130.652 14.3939 132.045 15.8182C133.455 17.2273 134.568 19.0076 135.386 21.1591C136.205 23.2955 136.614 25.8258 136.614 28.75V30.75H109.341V27.1818H132.477C132.477 24.9394 132.023 22.9242 131.114 21.1364C130.22 19.3333 128.97 17.9091 127.364 16.8636C125.773 15.8182 123.932 15.2955 121.841 15.2955C119.629 15.2955 117.682 15.8864 116 17.0682C114.318 18.25 113 19.8106 112.045 21.75C111.106 23.6894 110.629 25.8106 110.614 28.1136V30.25C110.614 33.0227 111.091 35.447 112.045 37.5227C113.015 39.5833 114.386 41.1818 116.159 42.3182C117.932 43.4545 120.03 44.0227 122.455 44.0227C124.106 44.0227 125.553 43.7652 126.795 43.25C128.053 42.7348 129.106 42.0455 129.955 41.1818C130.818 40.303 131.47 39.3409 131.909 38.2955L135.75 39.5455C135.22 41.0152 134.348 42.3712 133.136 43.6136C131.939 44.8561 130.439 45.8561 128.636 46.6136C126.848 47.3561 124.788 47.7273 122.455 47.7273ZM153.46 0.454544L162.847 16.3182H163.21L172.642 0.454544H183.756L169.551 23.7273L184.074 47H172.756L163.21 31.1136H162.847L153.301 47H142.028L156.597 23.7273L142.301 0.454544H153.46Z" fill="black"/>
</svg>
